<?xml version="1.0" encoding="UTF-8"?>
<!DOCTYPE svg PUBLIC "-//W3C//DTD SVG 1.1//EN" "http://www.w3.org/Graphics/SVG/1.1/DTD/svg11.dtd">
<!-- Creator: CorelDRAW -->
<svg xmlns="http://www.w3.org/2000/svg" xml:space="preserve" width="512px" height="512px" version="1.1" style="shape-rendering:geometricPrecision; text-rendering:geometricPrecision; image-rendering:optimizeQuality; fill-rule:evenodd; clip-rule:evenodd"
viewBox="0 0 52.95 52.95"
 xmlns:xlink="http://www.w3.org/1999/xlink"
 xmlns:xodm="http://www.corel.com/coreldraw/odm/2003">
 <defs>
  <style type="text/css">
   <![CDATA[
    .fil3 {fill:#323232}
    .fil2 {fill:#57B6E8}
    .fil11 {fill:#656A75}
    .fil9 {fill:#7AB92D}
    .fil6 {fill:#93999A}
    .fil8 {fill:#A0D41D}
    .fil1 {fill:#A9E1F8}
    .fil4 {fill:#C3F036}
    .fil7 {fill:#CFD7D9}
    .fil0 {fill:#E59730}
    .fil10 {fill:#F8DF09}
    .fil5 {fill:#FCBC04}
    .fil12 {fill:#323232;fill-rule:nonzero}
   ]]>
  </style>
 </defs>
 <g id="Capa_x0020_1">
  <metadata id="CorelCorpID_0Corel-Layer"/>
  <rect class="fil0" width="52.95" height="52.95" rx="2.44" ry="3.51"/>
  <g id="_1275368544080">
   <path class="fil1" d="M28.37 12.56c-0.27,0.73 -0.96,0.62 -1.85,0.62l-7.53 0 0 1.02c0.21,-0.12 0.34,-0.25 0.61,-0.39 0.77,-0.38 1.64,-0.42 2.43,-0.11 2.8,1.09 2.23,5 -0.64,5.42 -0.75,0.1 -1.04,-0.04 -1.67,-0.22 0.03,0.25 0.49,1.07 0.68,1.36 0.1,0.17 0.04,0.12 0.2,0.16 1.09,-0.04 1.84,0.27 2.4,0.79 0.51,0.47 0.94,1.33 0.85,2.34 0.52,0.15 1.22,0.76 3.12,1.1 1.29,0.22 2.72,0.15 4.07,0.15l-0.01 -6.87c0,-0.35 -0.04,-0.6 0.33,-0.66l0 -0.64c-0.46,-0.07 -0.33,-0.64 -0.33,-1.09l0 -4.24 -2.27 0c0,0.74 0.13,1.22 -0.39,1.26z"/>
   <path class="fil2" d="M17.04 20.4l0 0.64c0.44,0.07 0.32,0.58 0.32,1.25l0 4.71 13.68 0 0 -2.2c-1.35,0 -2.78,0.07 -4.07,-0.15 -1.9,-0.34 -2.6,-0.95 -3.12,-1.1 -0.11,0.62 -0.27,1.02 -0.61,1.43 -0.29,0.34 -0.63,0.65 -1.21,0.88 -1.23,0.47 -2.5,0.02 -3.16,-0.62 -1.12,-1.09 -1.24,-3.04 0.26,-4.22 0.49,-0.39 0.79,-0.43 1.47,-0.6 -0.16,-0.04 -0.1,0.01 -0.2,-0.16 -0.19,-0.29 -0.65,-1.11 -0.68,-1.36 -0.18,-0.13 -0.37,-0.19 -0.59,-0.36 -1.47,-1.17 -1.47,-3.05 -0.14,-4.34l0 -1.02 7.53 0c0.89,0 1.58,0.11 1.85,-0.62 -0.97,-0.02 -1.95,-0.01 -2.91,-0.01 -0.49,0 -0.98,0 -1.46,0 -0.47,0 -1.02,0.13 -1.1,-0.31l-0.66 0c-0.06,0.37 -0.35,0.31 -0.73,0.31 -2.15,0 -1.87,0.22 -1.87,-1.25 -0.76,0 -1.52,0 -2.28,0l0 8.24c0,0.41 0.11,0.79 -0.32,0.86z"/>
   <path class="fil3" d="M35.92 15.07c-0.27,0.04 -0.33,0.19 -0.33,0.47l0 5.49 -0.65 0 0 -7.85 0.65 0c0,0.67 -0.12,1.18 0.33,1.26 0.42,-0.03 0.32,-0.4 0.32,-0.83l0 -2.31c0,-0.5 0.02,-0.69 -0.16,-1.02 -0.63,-1.18 -2.37,-1.16 -2.96,0.05 -0.25,0.51 -0.13,1.48 -0.13,2.18l0 8.68c-0.01,0.28 0.01,0.29 0.1,0.5l1.02 2.46c0.1,0.26 0.19,0.68 0.54,0.65 0.28,-0.02 0.38,-0.43 0.48,-0.68l1.04 -2.49c0.08,-0.19 0.08,-0.2 0.07,-0.48l0 -5.22c0,-0.43 0.11,-0.84 -0.32,-0.86z"/>
   <path class="fil3" d="M17.04 20.4c0.43,-0.07 0.32,-0.45 0.32,-0.86l0 -8.24c0.76,0 1.52,0 2.28,0 0,1.47 -0.28,1.25 1.87,1.25 0.38,0 0.67,0.06 0.73,-0.31 -0.07,-0.4 -0.41,-0.31 -0.81,-0.31 -0.38,0 -0.76,0 -1.14,0l0 -1.26c0.62,0 1.14,0.03 1.42,-0.36 0.43,-0.56 -0.12,-0.9 0.86,-0.9 1.14,0 2.28,0 3.42,0 0.72,0 0.33,0.5 0.73,0.95 0.3,0.34 0.8,0.31 1.39,0.31l0 0.63 -0.01 0.63 -4.15 0c-0.45,0 -0.98,-0.13 -1.05,0.31 0.08,0.44 0.63,0.31 1.1,0.31 0.48,0 0.97,0 1.46,0 0.96,0 1.94,-0.01 2.91,0.01 0.52,-0.04 0.39,-0.52 0.39,-1.26l2.27 0 0 4.24c0,0.45 -0.13,1.02 0.33,1.09 0.42,-0.02 0.33,-0.39 0.33,-0.82l0 -4.55c0,-0.53 -0.01,-0.6 -0.57,-0.59 -0.79,0.01 -1.58,0 -2.36,0 0,-0.29 0.04,-0.52 -0.19,-0.6 -0.41,-0.16 -1.21,0.16 -1.4,-0.22 -0.1,-0.19 0.02,-0.7 -0.61,-0.99 -0.31,-0.14 -1.94,-0.08 -2.36,-0.08 -0.42,0 -2.05,-0.06 -2.36,0.08 -0.63,0.29 -0.52,0.8 -0.61,0.99 -0.19,0.38 -0.99,0.06 -1.4,0.22 -0.23,0.08 -0.19,0.31 -0.19,0.6l-2.48 0c-0.34,0 -0.45,0.07 -0.45,0.39 -0.05,2.87 0.03,5.93 0,8.84 0,0.32 0.01,0.49 0.33,0.5z"/>
   <path class="fil3" d="M18.99 14.2c-1.33,1.29 -1.33,3.17 0.14,4.34 0.22,0.17 0.41,0.23 0.59,0.36 0.63,0.18 0.92,0.32 1.67,0.22 2.87,-0.42 3.44,-4.33 0.64,-5.42 -0.79,-0.31 -1.66,-0.27 -2.43,0.11 -0.27,0.14 -0.4,0.27 -0.61,0.39z"/>
   <path class="fil3" d="M23.85 23.55c0.09,-1.01 -0.34,-1.87 -0.85,-2.34 -0.56,-0.52 -1.31,-0.83 -2.4,-0.79 -0.68,0.17 -0.98,0.21 -1.47,0.6 -1.5,1.18 -1.38,3.13 -0.26,4.22 0.66,0.64 1.93,1.09 3.16,0.62 0.58,-0.23 0.92,-0.54 1.21,-0.88 0.34,-0.41 0.5,-0.81 0.61,-1.43z"/>
   <path class="fil3" d="M31.04 24.8l0 2.2 -13.68 0 0 -4.71c0,-0.67 0.12,-1.18 -0.32,-1.25 -0.39,0.02 -0.33,0.28 -0.33,0.66l0 5.03c0,1.04 -0.08,0.9 1.14,0.9l12.45 0c1.4,0 1.39,0.13 1.39,-0.67l0 -8.99c0,-0.39 0.06,-0.68 -0.33,-0.7 -0.37,0.06 -0.33,0.31 -0.33,0.66l0.01 6.87z"/>
   <path class="fil4" d="M19 15.23c-0.07,0.57 0.13,2.11 0.34,2.61 0.23,0.48 1.6,0.97 2.65,0.44 1.9,-0.97 1.5,-3.65 -0.54,-4.1 -1.15,-0.25 -2.32,0.5 -2.45,1.05z"/>
   <path class="fil5" d="M23.19 22.98c-0.02,0.17 0,0.07 -0.04,0.12 -0.19,-0.14 -0.82,-0.56 -0.89,-0.72l-0.84 0.85c0.12,0.19 0.36,0.37 0.52,0.53 0.12,0.11 0.47,0.38 0.21,0.63 -0.36,0.35 -0.95,-0.55 -1.21,-0.69 -0.26,0.15 -0.84,1.04 -1.2,0.69 -0.38,-0.36 0.47,-0.75 0.72,-1.16 -0.15,-0.24 -1.08,-0.81 -0.72,-1.16 0.36,-0.34 0.95,0.55 1.2,0.7l0.89 -0.81c-0.17,-0.06 -0.77,-0.72 -0.86,-0.93 -0.52,0.02 -0.98,0.16 -1.33,0.4 -0.31,0.21 -0.61,0.54 -0.79,0.93 -0.19,0.44 -0.24,0.94 -0.11,1.43 0.49,1.82 3.07,2.27 4.17,0.55 0.21,-0.33 0.42,-0.93 0.28,-1.36z"/>
   <path class="fil6" d="M22.24 12.24l0.66 0c0.07,-0.44 0.6,-0.31 1.05,-0.31l4.15 0 0.01 -0.63c-0.77,0 -3.18,0.03 -3.75,-0.01 -1.03,-0.08 -1.74,-0.87 -1.79,-1.88 -0.98,0 -0.43,0.34 -0.86,0.9 -0.28,0.39 -0.8,0.36 -1.42,0.36l0 1.26c0.38,0 0.76,0 1.14,0 0.4,0 0.74,-0.09 0.81,0.31z"/>
   <path class="fil7" d="M28.11 11.3l0 -0.63c-0.59,0 -1.09,0.03 -1.39,-0.31 -0.4,-0.45 -0.01,-0.95 -0.73,-0.95 -1.14,0 -2.28,0 -3.42,0 0.05,1.01 0.76,1.8 1.79,1.88 0.57,0.04 2.98,0.01 3.75,0.01z"/>
   <path class="fil8" d="M35.92 15.07l0 -0.63c-0.45,-0.08 -0.33,-0.59 -0.33,-1.26l-0.65 0 0 7.85 0.65 0 0 -5.49c0,-0.28 0.06,-0.43 0.33,-0.47z"/>
   <polygon class="fil9" points="33.64,21.03 34.29,21.03 34.29,13.18 33.64,13.18 "/>
   <path class="fil3" d="M22.26 22.38c-0.08,-0.35 -0.07,-0.34 -0.43,-0.42l-0.89 0.81c-0.25,-0.15 -0.84,-1.04 -1.2,-0.7 -0.36,0.35 0.57,0.92 0.72,1.16 -0.25,0.41 -1.1,0.8 -0.72,1.16 0.36,0.35 0.94,-0.54 1.2,-0.69 0.26,0.14 0.85,1.04 1.21,0.69 0.26,-0.25 -0.09,-0.52 -0.21,-0.63 -0.16,-0.16 -0.4,-0.34 -0.52,-0.53l0.84 -0.85z"/>
   <path class="fil3" d="M20.28 16.52c-0.09,-0.12 -0.48,-0.59 -0.77,-0.48 -0.5,0.19 0.07,0.66 0.17,0.75 0.59,0.57 0.54,0.63 1.18,0.12l1.14 -0.87c0.5,-0.38 0.11,-0.7 -0.15,-0.65 -0.26,0.06 -1.2,0.97 -1.57,1.13z"/>
   <path class="fil3" d="M26.69 15.73c-0.32,0.15 -0.25,0.51 0.04,0.58 0.17,0.04 3.02,0.03 3.13,-0.02 0.28,-0.12 0.23,-0.52 -0.06,-0.58 -0.16,-0.04 -3,-0.03 -3.11,0.02z"/>
   <path class="fil3" d="M26.69 18.24c-0.32,0.15 -0.25,0.51 0.04,0.58 0.17,0.04 3.02,0.03 3.13,-0.02 0.28,-0.11 0.23,-0.51 -0.06,-0.58 -0.16,-0.04 -3,-0.03 -3.11,0.02z"/>
   <path class="fil3" d="M26.69 22.32c-0.32,0.15 -0.25,0.52 0.04,0.59 0.17,0.03 3.02,0.02 3.13,-0.02 0.28,-0.12 0.23,-0.52 -0.06,-0.59 -0.16,-0.03 -3,-0.03 -3.11,0.02z"/>
   <path class="fil3" d="M26.69 21.07c-0.32,0.15 -0.25,0.51 0.04,0.58 0.17,0.04 3.02,0.03 3.13,-0.02 0.28,-0.12 0.23,-0.52 -0.06,-0.58 -0.16,-0.04 -3,-0.03 -3.11,0.02z"/>
   <path class="fil3" d="M26.69 16.98c-0.25,0.12 -0.29,0.39 -0.07,0.54 0.19,0.13 2.5,0.07 2.59,0.03 0.22,-0.1 0.25,-0.41 0.05,-0.54 -0.16,-0.1 -0.61,-0.06 -0.83,-0.06 -0.3,0 -1.57,-0.04 -1.74,0.03z"/>
   <path class="fil3" d="M26.69 14.47c-0.2,0.09 -0.31,0.31 -0.11,0.5 0.15,0.14 0.47,0.1 0.71,0.1 0.26,0 1.44,0.03 1.6,-0.04 0.18,-0.07 0.26,-0.33 0.09,-0.49 -0.15,-0.15 -0.47,-0.1 -0.71,-0.1 -0.28,0 -1.41,-0.04 -1.58,0.03z"/>
   <path class="fil3" d="M26.69 23.58c-0.2,0.09 -0.31,0.31 -0.11,0.5 0.15,0.14 0.47,0.1 0.71,0.09 0.26,0 1.44,0.04 1.6,-0.03 0.18,-0.08 0.26,-0.33 0.09,-0.5 -0.15,-0.14 -0.47,-0.09 -0.71,-0.09 -0.28,0 -1.41,-0.05 -1.58,0.03z"/>
   <path class="fil10" d="M21.83 21.96c0.36,0.08 0.35,0.07 0.43,0.42 0.07,0.16 0.7,0.58 0.89,0.72 0.04,-0.05 0.02,0.05 0.04,-0.12 0.01,-0.55 -0.34,-0.99 -0.7,-1.36 -0.33,-0.33 -0.88,-0.56 -1.52,-0.59 0.09,0.21 0.69,0.87 0.86,0.93z"/>
   <path class="fil1" d="M34.46 11.3l1.13 0c0,-0.73 -0.18,-1.16 -0.88,-1.26 -0.25,0.33 -0.25,0.77 -0.25,1.26z"/>
   <path class="fil2" d="M34.46 11.3c0,-0.49 0,-0.93 0.25,-1.26 -0.84,-0.01 -1.07,0.48 -1.07,1.26l0.82 0z"/>
   <path class="fil8" d="M19.34 17.84c-0.21,-0.5 -0.41,-2.04 -0.34,-2.61 -0.29,0.22 -0.38,1 -0.31,1.43 0.07,0.45 0.35,1.02 0.65,1.18z"/>
   <path class="fil0" d="M35.19 22.24c-0.1,-0.12 -0.15,-0.39 -0.18,-0.58l-1.21 0 0.25 0.63 1.11 -0.03c0.01,0 0.02,-0.01 0.03,-0.02z"/>
   <polygon class="fil7" points="34.46,12.55 35.59,12.55 35.59,11.93 34.46,11.93 "/>
   <polygon class="fil6" points="34.46,12.55 34.46,11.93 33.64,11.93 33.64,12.55 "/>
   <path class="fil3" d="M25.39 14.47c-0.44,0.2 -0.11,0.71 0.24,0.57 0.37,-0.16 0.13,-0.74 -0.24,-0.57z"/>
   <path class="fil3" d="M25.39 22.32c-0.44,0.21 -0.11,0.72 0.24,0.57 0.37,-0.16 0.13,-0.74 -0.24,-0.57z"/>
   <path class="fil3" d="M25.39 15.73c-0.44,0.2 -0.11,0.71 0.24,0.56 0.37,-0.15 0.13,-0.73 -0.24,-0.56z"/>
   <path class="fil3" d="M25.39 23.58c-0.44,0.2 -0.11,0.71 0.24,0.56 0.37,-0.15 0.13,-0.73 -0.24,-0.56z"/>
   <path class="fil3" d="M25.39 21.07c-0.44,0.2 -0.11,0.71 0.24,0.56 0.37,-0.15 0.13,-0.74 -0.24,-0.56z"/>
   <path class="fil3" d="M25.39 16.98c-0.44,0.21 -0.11,0.72 0.24,0.57 0.37,-0.16 0.13,-0.74 -0.24,-0.57z"/>
   <path class="fil3" d="M25.39 18.24c-0.44,0.2 -0.11,0.71 0.24,0.56 0.37,-0.15 0.13,-0.73 -0.24,-0.56z"/>
   <polygon class="fil11" points="34.6,23.6 34.92,22.92 34.32,22.92 "/>
   <path class="fil5" d="M35.19 22.24l0.24 -0.57 -0.42 -0.01c0.03,0.19 0.08,0.46 0.18,0.58z"/>
  </g>
  <path class="fil12" d="M10.93 43.09l1.43 -5.09 0 6 2.23 0 0 -12.76 -2.44 0 -1.22 5.4 -1.22 -5.4 -2.42 0 0 12.76 2.23 0 0 -6 1.41 5.09zm4.59 -0.27c0,0.76 0.54,1.36 1.21,1.36 0.67,0 1.21,-0.6 1.21,-1.36 0,-0.75 -0.54,-1.36 -1.21,-1.36 -0.67,0 -1.21,0.61 -1.21,1.36zm7.04 -0.4l0.2 1.58 2.26 0 -2.03 -12.76 -2.4 0 -2.03 12.76 2.26 0 0.2 -1.58 1.54 0zm-0.76 -6.57l0.51 4.55 -1.04 0 0.53 -4.55zm3.89 6.97c0,0.76 0.54,1.36 1.21,1.36 0.67,0 1.21,-0.6 1.21,-1.36 0,-0.75 -0.54,-1.36 -1.21,-1.36 -0.67,0 -1.21,0.61 -1.21,1.36zm3.35 1.18l4.28 0 0.39 -2.37 -2.36 0 0 -2.77 1.86 0 0 -2.2 -1.86 0 0 -3.05 2.45 0 -0.39 -2.37 -4.37 0 0 12.76zm5.26 -1.18c0,0.76 0.54,1.36 1.21,1.36 0.66,0 1.2,-0.6 1.2,-1.36 0,-0.75 -0.54,-1.36 -1.2,-1.36 -0.67,0 -1.21,0.61 -1.21,1.36zm6.54 1.18c1.01,0 1.5,-0.56 1.5,-1.7l0 -4.43c0,-0.94 -0.4,-1.3 -1.11,-1.3l-1.41 0c-0.24,0 -0.35,-0.07 -0.35,-0.33l0 -2.35c0,-0.2 0.1,-0.28 0.28,-0.28l2.55 0 -0.39 -2.37 -3.12 0c-1.05,0 -1.5,0.65 -1.5,1.65l0 4.35c0,1.27 0.59,1.44 1.25,1.44l1.17 0c0.31,0 0.42,0.02 0.42,0.37l0 2.32c0,0.19 -0.07,0.26 -0.27,0.26l-2.42 0 0.41 2.37 2.99 0zm2.4 -1.18c0,0.76 0.54,1.36 1.21,1.36 0.67,0 1.21,-0.6 1.21,-1.36 0,-0.75 -0.54,-1.36 -1.21,-1.36 -0.67,0 -1.21,0.61 -1.21,1.36z"/>
 </g>
</svg>
